<?xml version="1.0" encoding="utf-8"?>
<!-- Generator: Adobe Illustrator 23.0.1, SVG Export Plug-In . SVG Version: 6.00 Build 0)  -->
<svg version="1.1" id="Layer_1" xmlns="http://www.w3.org/2000/svg" xmlns:xlink="http://www.w3.org/1999/xlink" x="0px" y="0px"
	 viewBox="0 0 500 512" style="enable-background:new 0 0 500 512;" xml:space="preserve">
<style type="text/css">
	.st0{fill:#B5985A;}
</style>
<g>
	<path class="st0" d="M188.01,27.08c8.94,0,17.89,0,26.83,0c0.86,0.24,1.7,0.57,2.57,0.71c10.48,1.66,21.1,2.66,31.41,5.08
		c22.17,5.19,42.44,14.7,60.06,29.52c5.31,4.46,5.83,6.76,3.06,12.91c-5.29,11.74-10.62,23.45-15.93,35.18
		c-4.82,10.64-9.63,21.29-14.58,32.25c74.71-13.35,135.76,30.99,157.33,87.13c11.34,29.52,13.11,59.72,4.51,90.14
		c-11.51,40.72-36.83,70.22-73.8,90.25c1.62,0,3.24,0,4.86,0c34.23,0,68.46,0.05,102.69-0.06c4.19-0.01,7.56,0.94,9.84,4.66
		c0,5.29,0,10.59,0,15.88c-0.24,0.38-0.65,0.74-0.69,1.15c-3.18,26.62-27.2,52.42-62.29,52.15c-57.44-0.43-114.88-0.13-172.32-0.07
		c-2.06,0-4.12,0.63-6.18,0.97c-30.22,0-60.45,0-90.67,0c-9.43-3.45-12.47-10.28-12.44-20.25c0.25-89.02,0.16-178.05,0.06-267.07
		c0-2.97-0.71-6.22-2.03-8.86c-18.73-37.6-37.61-75.12-56.48-112.65c-3.51-6.98-2.87-9.64,3.4-14.06
		c22.94-16.19,48.38-26.25,75.82-31.23C171.31,29.29,179.68,28.3,188.01,27.08z M99.22,72.31c0.4,0.99,0.59,1.58,0.86,2.12
		c18.09,36.02,36.23,72.01,54.22,108.08c1.34,2.69,3.12,2.89,5.55,2.88c26.82-0.04,53.64-0.11,80.46,0.07
		c3.83,0.03,5.6-1.23,7.18-4.73c15.74-35.07,31.65-70.06,47.64-105.01c1.34-2.92,0.68-4.27-1.7-6.02
		c-14.66-10.78-31.01-17.72-48.51-22.01c-12.1-2.96-24.36-4.92-37.43-4.78c0,1.97,0,3.64,0,5.31c0,22.41,0,44.83,0,67.24
		c0,1.56,0.15,3.15-0.12,4.66c-0.72,3.99-3.22,6.35-7.2,6.68c-3.74,0.31-7.07-2.71-7.62-6.67c-0.21-1.53-0.17-3.11-0.17-4.66
		c-0.01-22.41-0.01-44.83-0.01-67.24c0-1.66,0-3.32,0-5.45C158.54,44.77,127.64,53.75,99.22,72.31z M257.69,247.27
		c2.21-1.92,3.58-3.07,4.91-4.27c7.24-6.53,14.3-13.27,21.8-19.49c2.11-1.75,5.66-3.07,8.23-2.64c6.14,1.01,7.39,8.76,2.3,13.49
		c-8.84,8.22-17.43,16.82-26.96,24.15c-8.14,6.26-11.94,13.32-10.42,23.61c0.66,4.43,0.11,9.04,0.11,14.62
		c10.25-9.15,19.49-17.37,28.71-25.61c12.47-11.13,24.94-22.25,37.38-33.42c2.7-2.43,5.88-3.55,8.8-1.43
		c1.99,1.44,4.15,4.32,4.1,6.51c-0.06,2.5-1.97,5.52-3.96,7.32c-23.88,21.59-47.94,42.97-71.86,64.51c-1.45,1.3-2.95,3.45-3.02,5.26
		c-0.32,8.4-0.21,16.81-0.06,25.22c0.02,1.15,0.82,2.68,1.75,3.35c19.8,14.37,41.82,19.57,65.64,14.43
		c57.61-12.44,83.74-78.01,51.18-127.71c-25.16-38.41-80.08-48.06-116.23-20.39c-1.01,0.77-2.27,2.07-2.29,3.15
		C257.62,227.34,257.69,236.76,257.69,247.27z M157.72,428.19c28.44,0,56.52,0,84.48,0c0-61.32,0-122.25,0-183.12
		c-28.33,0-56.31,0-84.48,0C157.72,306.17,157.72,366.99,157.72,428.19z M257.67,363.9c0,10.99,0.15,20.93-0.09,30.86
		c-0.07,3.18,0.93,4.75,3.83,5.83c41.92,15.55,82.08,11.92,118.84-13.79c64.33-44.99,73.85-135.13,20.08-192.51
		c-33.49-35.73-75.28-47.1-122.83-36.34c-1.67,0.38-3.69,1.85-4.41,3.37c-5.06,10.63-9.89,21.38-14.63,32.17
		c-0.7,1.6-0.52,3.59-0.82,6.03c48.07-27.8,97.82-11.44,123.38,19.46c28.98,35.04,30.92,83.29,4.78,119.58
		c-12.83,17.8-29.83,29.99-50.84,36.02C308.1,382.29,282.58,378.44,257.67,363.9z M473.2,424.44c-72.2,0-143.66,0-215.16,0
		c0,15.33,0,30.33,0,45.39c1.13,0.09,1.89,0.2,2.65,0.2c55.98,0.01,111.95,0.06,167.93-0.05c10.02-0.02,19.01-3.6,26.82-9.95
		C466.59,450.98,472.63,439.28,473.2,424.44z M242.19,229.13c0-8.6,0-16.73,0-24.89c-28.33,0-56.29,0-84.31,0
		c0,8.44,0,16.59,0,24.89C186.08,229.13,213.94,229.13,242.19,229.13z M157.88,444.08c0,8.55,0,16.69,0,24.84
		c28.32,0,56.28,0,84.32,0c0-8.43,0-16.57,0-24.84C213.99,444.08,186.14,444.08,157.88,444.08z"/>
	<path class="st0" d="M113.99,484.92c-33.62,0-67.23,0-100.85,0c0-61.36,0-122.71,0-184.07c4.15-1.4,8.3-2.8,13.12-4.43
		c0-9.03,0-18.96,0-28.89c0-11.21-0.01-22.41,0-33.62c0.01-7.54,1.17-8.73,8.46-8.74c1.94,0,3.88,0,6.2,0c0-33.72,0-66.81,0-100.31
		c1.95,0.37,3.45,0.6,4.93,0.95c17.67,4.2,30.84,15,41.4,29.35c1.59,2.16,2.65,5.27,2.69,7.96c0.23,18.98,0.12,37.97,0.12,56.96
		c0,1.63,0,3.25,0,4.91c1.68,0.08,2.6,0.15,3.52,0.16c8.55,0.11,9.3,0.85,9.31,9.28c0,19.45,0,38.91,0,58.36c0,1.63,0,3.26,0,5.12
		c1.98,0,3.2-0.01,4.42,0c9.26,0.05,9.73,0.52,9.73,9.7c0,56.18-0.02,112.37,0.05,168.55C117.08,479.57,116.83,482.65,113.99,484.92
		z M36.5,235.45c0,21.01,0,41.48,0,62.18c18.77,0,37.31,0,55.96,0c0-20.87,0-41.46,0-62.18C73.71,235.45,55.28,235.45,36.5,235.45z"
		/>
</g>
</svg>
