<?xml version="1.0" encoding="utf-8"?>
<!-- Generator: Adobe Illustrator 23.0.1, SVG Export Plug-In . SVG Version: 6.00 Build 0)  -->
<svg version="1.1" id="Layer_1" xmlns="http://www.w3.org/2000/svg" xmlns:xlink="http://www.w3.org/1999/xlink" x="0px" y="0px"
	 viewBox="0 0 500 512" style="enable-background:new 0 0 500 512;" xml:space="preserve">
<style type="text/css">
	.st0{fill:#B5985A;}
</style>
<g>
	<path class="st0" d="M173.98,271.21c0-20.33-0.03-40.65,0.01-60.98c0.04-21.42,12.85-34.25,34.19-34.28
		c25.32-0.03,50.65-0.04,75.97,0c21,0.04,33.88,12.94,33.9,34.07c0.05,40.98,0.05,81.97,0,122.95c-0.02,21.06-13,34.02-33.95,34.03
		c-25.49,0.02-50.98,0.03-76.47,0c-20.39-0.02-33.54-13-33.64-33.33C173.91,312.87,173.98,292.04,173.98,271.21z"/>
	<path class="st0" d="M433.99,132.53c0-18.66-0.06-37.31,0.06-55.97c0.02-3.02-0.77-4.69-3.69-6.1
		c-12.31-5.96-18.24-18.8-14.98-31.57c3.22-12.58,14.79-21.31,27.67-20.88c12.73,0.42,23.72,10.04,26.11,22.86
		c2.32,12.41-4.61,25.16-16.88,30.27c-3.01,1.25-3.81,2.73-3.8,5.82c0.11,35.48,0.18,70.96-0.04,106.44
		c-0.04,6.25-0.74,12.71-2.45,18.71c-3.77,13.21-14.19,20.47-29.01,20.81c-11.65,0.27-23.32-0.05-34.98,0.22
		c-1.92,0.04-4.37,1.3-5.59,2.79c-6.78,8.32-16.87,11.3-26.37,7.39c-9.49-3.91-14.19-12.55-12.78-23.47
		c1.27-9.83,8.86-17.65,18.45-19.01c10.37-1.48,19.68,3.67,23.63,13.52c1.12,2.79,2.44,3.73,5.38,3.68
		c10.33-0.17,20.66,0,30.98-0.08c11.55-0.09,16.91-4.73,17.7-16.45c0.7-10.29,0.48-20.64,0.57-30.96
		C434.05,151.19,433.99,141.86,433.99,132.53z M441.7,33.61c-6.98-0.09-12.41,5.12-12.56,12.05c-0.15,7,5.49,12.73,12.52,12.69
		c6.95-0.03,12.24-5.36,12.25-12.34C453.91,39.02,448.67,33.7,441.7,33.61z"/>
	<path class="st0" d="M33.51,413.59c0-17.19-0.14-34.33,0.08-51.47c0.07-5.62,0.54-11.36,1.79-16.82
		c3.59-15.63,13.87-24.67,29.85-25.37c14.46-0.63,28.96-0.12,43.45,0.08c3.12,0.04,5-0.62,6.66-3.63
		c4.89-8.82,14.74-12.69,24.38-10.15c9.31,2.46,16.14,11.26,16.27,20.99c0.13,9.71-6.37,18.51-15.78,21.35
		c-9.4,2.84-20.01-0.69-24.81-9.16c-2.21-3.89-4.79-4.67-8.71-4.64c-12.16,0.07-24.31-0.28-36.47-0.16
		c-13.72,0.14-19.47,4.75-20.79,18.29c-1.11,11.39-0.71,22.94-0.87,34.41c-0.11,7.66,0.09,15.32-0.08,22.98
		c-0.06,2.84,0.67,4.32,3.51,5.56c13.38,5.84,19.98,19.11,16.86,33.1c-3.08,13.79-15.3,23.68-29.08,23.54
		c-14.21-0.14-26.18-10.26-28.84-24.39c-2.43-12.9,4.68-26.44,16.86-32.1C29.6,415.18,31.45,414.46,33.51,413.59z M54.49,443.49
		c0.07-8.28-6.14-14.77-14.25-14.89c-8.11-0.12-14.7,6.38-14.66,14.46c0.04,7.86,6.42,14.25,14.31,14.34
		C47.91,457.49,54.43,451.28,54.49,443.49z"/>
	<path class="st0" d="M456.55,382.95c0,8.49,0.18,16.99-0.08,25.48c-0.12,3.79,0.77,5.74,4.68,7.26
		c11.45,4.43,18.76,15.67,18.31,27.81c-0.47,12.7-6.94,21.67-18.5,26.74c-10.74,4.71-23.32,2.02-31.82-6.43
		c-14.56-14.45-10.18-39.13,8.68-47.63c3.38-1.52,4.25-3.31,4.22-6.69c-0.15-15.32,0.1-30.65-0.16-45.96
		c-0.1-5.61-0.71-11.32-1.98-16.78c-1.62-7.02-6.53-11.54-13.81-11.7c-15.48-0.34-30.97-0.14-46.45,0.15
		c-1.38,0.03-3.01,2.13-4.04,3.61c-5.31,7.61-12.37,11.57-21.73,10.42c-8.92-1.09-14.98-6.22-18.08-14.53
		c-3.93-10.54,1.26-22.34,11.63-27.18c10.09-4.71,22.17-1.11,27.72,8.75c1.68,2.98,3.39,3.71,6.59,3.63
		c12.15-0.32,24.31-0.46,36.47-0.38c24.43,0.15,36.86,11.96,38.12,36.47c0.46,8.97,0.07,17.98,0.07,26.97
		C456.46,382.95,456.5,382.95,456.55,382.95z M450.1,457.4c8.05-0.04,14.54-6.7,14.38-14.74c-0.16-7.84-6.63-14.11-14.52-14.07
		c-7.89,0.04-14.28,6.36-14.37,14.21C435.49,450.85,442.04,457.44,450.1,457.4z"/>
	<path class="st0" d="M67.88,70.4c0.7,0.59,1.29,1.17,1.96,1.64c25.75,18.1,51.58,36.08,77.2,54.35c7.4,5.27,15.32,7.71,24.29,7.5
		c5.99-0.14,12-0.15,17.98,0.13c3.72,0.18,5.75-0.68,7.36-4.55c4.77-11.45,18.3-16.15,29.33-10.76c11.18,5.46,15.72,18.8,10.1,29.68
		c-5.76,11.18-19.54,15.41-30.34,9.2c-1.99-1.14-4.25-2.52-5.33-4.39c-2.59-4.5-6.35-4.98-10.93-4.84c-6.48,0.2-13-0.49-19.48-0.18
		c-10.99,0.52-20.69-2.85-29.55-8.98c-23.13-16.02-46.2-32.14-69.29-48.22c-0.96-0.67-1.95-1.29-2.85-2.02
		c-6.11-5-11.49-8.09-20.67-4.61c-12.58,4.77-26.29-2.59-32.39-14.33c-6.01-11.56-3.54-25.73,6.06-34.84
		c9.79-9.28,24.18-10.85,35.52-3.88c11.44,7.03,16.66,20.48,12.91,33.33C69.22,66.52,68.54,68.38,67.88,70.4z M41.35,41.05
		c-7.85-0.17-14.45,6.03-14.76,13.86c-0.31,8.03,6.1,14.85,14.11,15.03c7.81,0.17,14.46-6.08,14.76-13.89
		C55.77,48.01,49.39,41.23,41.35,41.05z"/>
	<path class="st0" d="M231.93,75.02c-8.16,0-16.32,0.16-24.48-0.07c-3.45-0.1-5.15,0.92-6.61,4.25
		c-5.7,12.94-19.69,19.68-33.44,16.59c-13.43-3.02-23.14-15.31-22.89-29c0.25-13.9,10.36-25.67,24.35-28.35
		c13.53-2.6,27.55,4.92,32.73,17.98c1.28,3.21,2.87,4.14,6.16,4.11c15.65-0.16,31.3-0.12,46.96-0.03c3.65,0.02,7.37,0.12,10.93,0.81
		c9.24,1.8,15.32,8.76,15.86,19.22c0.54,10.62,0.2,21.3,0,31.95c-0.05,3,0.66,4.69,3.54,6.16c9.34,4.81,13.62,14.32,11.41,24.28
		c-2.07,9.31-10.78,16.61-20.38,17.07c-9.68,0.46-18.68-5.72-21.87-15.04c-3.26-9.5,0.15-19.67,9.02-25.23
		c2.95-1.85,4.1-3.83,4.07-7.15c-0.06-8.99,0.25-17.98,0.12-26.97c-0.12-8.21-2.36-10.37-10.51-10.49
		c-8.32-0.12-16.65-0.03-24.98-0.03C231.93,75.05,231.93,75.03,231.93,75.02z M188.48,66.51c0.01-7.82-6.36-14.31-14.16-14.44
		c-7.87-0.13-14.71,6.58-14.73,14.47c-0.02,7.79,6.39,14.28,14.2,14.4C181.81,81.07,188.47,74.52,188.48,66.51z"/>
	<path class="st0" d="M108.17,435.76c0.32-5.92,0.17-11.79,1.06-17.5c2.05-13.16,9.83-20.6,23.18-21.25
		c14.96-0.73,29.97-0.44,44.96-0.59c2.67-0.03,5.35-0.18,7.99,0.03c6.29,0.5,11.27-0.21,15.71-6.23c5.54-7.51,16.78-8.62,25.11-4.4
		c8.63,4.37,12.95,12.93,11.54,22.87c-1.31,9.25-8.8,16.95-17.93,18.43c-9.69,1.57-18.92-2.68-22.96-11.27
		c-1.61-3.43-3.43-4.49-7.1-4.44c-17.66,0.24-35.32,0.03-52.98,0.29c-11.04,0.17-13.68,3.2-13.64,14.3c0,1,0.17,2,0.09,3
		c-0.34,4.53,1.07,7.21,5.75,9.36c12.35,5.67,18.55,20.09,15.21,33.17c-3.4,13.33-15.81,22.79-29.47,22.48
		c-13.46-0.3-25.52-10.38-28.09-23.49c-2.69-13.7,4.3-27.23,16.99-32.86C105.11,436.97,106.66,436.38,108.17,435.76z M115.81,450.59
		c-8.15-0.12-14.67,6.28-14.67,14.39c0,7.91,6.27,14.29,14.16,14.42c8.08,0.13,14.62-6.34,14.61-14.47
		C129.92,456.83,123.9,450.71,115.81,450.59z"/>
	<path class="st0" d="M316.03,411.54c-4.67,0-9.34,0.19-13.99-0.06c-3.52-0.19-5.58,0.68-7.35,4.18
		c-5.59,11.08-18.7,14.95-29.47,9.21c-10.71-5.71-14.79-19.08-9.06-29.67c5.77-10.67,19.05-14.87,29.68-9.11
		c2.56,1.39,5.4,3.32,6.7,5.75c2.35,4.39,5.67,4.71,9.91,4.66c9.99-0.13,20.01-0.2,29.99,0.29c16.63,0.82,25.68,9.68,25.85,26.21
		c0.08,8.12,1.1,13.39,9.62,17.59c11.5,5.67,15.36,20.56,11.11,33.23c-4.29,12.8-16.63,21.04-30.11,20.13
		c-13.12-0.89-24.06-10.58-26.81-23.76c-2.68-12.84,3.66-26.56,15.82-31.99c4.84-2.16,5.66-4.98,5.66-9.49
		c-0.03-14.67-2.02-16.87-16.53-17.11c-3.67-0.06-7.33-0.01-11-0.01C316.03,411.57,316.03,411.56,316.03,411.54z M351.54,450.06
		c-7.87,0.03-14.37,6.73-14.4,14.87c-0.03,8.12,6.56,14.64,14.62,14.48c7.86-0.16,14.26-7,14.15-15.11
		C365.81,456.39,359.38,450.03,351.54,450.06z"/>
	<path class="st0" d="M431.26,263.95c3.55-10.56,10.25-17.76,20.83-20.82c14.96-4.32,30.6,3.92,35.78,18.65
		c5.21,14.81-2.22,31.18-16.84,37.11c-14.28,5.79-30.9-0.59-37.43-14.9c-1.83-4.01-3.86-5.18-8.12-5.09
		c-14.66,0.29-29.33,0.17-43.99,0.06c-2.65-0.02-4.08,0.73-5.44,3.16c-5.17,9.2-14.95,13.26-24.64,10.64
		c-9.26-2.51-15.89-11.39-15.87-21.27c0.02-9.69,6.75-18.55,16.09-21.17c9.7-2.72,19.47,1.4,24.93,10.24
		c0.89,1.44,2.73,3.24,4.15,3.26C397.52,264.03,414.33,263.95,431.26,263.95z M460.44,285.95c7.86,0.04,14.31-6.26,14.47-14.15
		c0.17-8.1-6.29-14.72-14.37-14.73c-8.06-0.01-14.45,6.21-14.44,14.06C446.12,279.38,452.42,285.9,460.44,285.95z"/>
	<path class="st0" d="M12.53,212.98c-0.03-13.55,9.55-25.7,22.67-28.74c13.61-3.16,27.56,3.53,33.43,16.6
		c1.66,3.69,3.63,4.74,7.46,4.65c11.32-0.25,22.65-0.18,33.97-0.03c3.03,0.04,4.7-0.89,6.26-3.6c5.13-8.88,14.84-12.71,24.38-10.06
		c9.72,2.69,16.41,11.5,16.28,21.44c-0.13,9.8-6.72,18.28-16.27,20.94c-9.54,2.66-19.37-1.17-24.37-10.05
		c-1.67-2.96-3.53-3.77-6.68-3.73c-11.49,0.16-22.98,0.14-34.47,0.01c-2.99-0.03-4.65,0.58-5.88,3.77
		c-5.29,13.73-18.43,20.61-33.03,17.74C22.78,239.26,12.55,226.81,12.53,212.98z M56.47,213.13c0.08-7.87-6.2-14.34-14.1-14.52
		c-8.11-0.19-14.75,6.24-14.79,14.32c-0.04,8.05,6.19,14.48,14.01,14.5C49.87,227.44,56.39,221.17,56.47,213.13z"/>
	<path class="st0" d="M47.52,269.89c0.03-13.57,9.66-25.69,22.78-28.68c13.64-3.11,27.34,3.72,33.5,16.69
		c1.03,2.16,1.32,4.85,4.89,4.62c3.2-0.2,5.74-0.08,7.74-3.72c4.91-8.94,14.81-12.65,24.39-9.97c9.48,2.65,16.1,11.27,16.16,21.05
		c0.05,9.78-6.43,18.41-15.94,21.22c-9.52,2.81-19.53-0.85-24.5-9.7c-1.94-3.45-4.26-3.81-7.62-3.96c-3.88-0.17-4.06,2.69-5.12,4.97
		c-5.78,12.45-19.67,19.33-33.2,16.42C57.28,295.96,47.49,283.69,47.52,269.89z M76.82,283.94c7.82,0.11,14.4-6.18,14.65-13.99
		c0.25-8.05-6.18-14.77-14.23-14.89c-7.86-0.11-14.4,6.14-14.64,13.98C62.35,277.07,68.79,283.83,76.82,283.94z"/>
</g>
</svg>
