<?xml version="1.0" encoding="utf-8"?>
<!-- Generator: Adobe Illustrator 23.0.1, SVG Export Plug-In . SVG Version: 6.00 Build 0)  -->
<svg version="1.1" id="Layer_1" xmlns="http://www.w3.org/2000/svg" xmlns:xlink="http://www.w3.org/1999/xlink" x="0px" y="0px"
	 viewBox="0 0 500 512" style="enable-background:new 0 0 500 512;" xml:space="preserve">
<style type="text/css">
	.st0{fill:#B5985A;}
</style>
<g>
	<path class="st0" d="M244.64,17.76c1.86,0,3.72,0,5.58,0c16.32,12.52,34.36,22,53.31,29.77c43.72,17.92,89.38,25.87,136.5,26.17
		c8.91,0.06,12.09,3.28,12.09,12.1c0.01,55.82,0.09,111.64-0.03,167.46c-0.08,39.07-8.88,76.13-26.29,111.13
		c-0.6,1.2-1.09,2.45-1.55,3.49c0.32,0.44,0.38,0.61,0.5,0.69c1.03,0.69,2.09,1.33,3.1,2.05c22.81,16.16,33.44,38.34,29.37,65.89
		c-4.22,28.54-21.48,46.96-49.13,55.42c-3.23,0.99-6.59,1.56-9.89,2.32c-4.96,0-9.93,0-14.89,0c-1.03-0.29-2.04-0.7-3.1-0.87
		c-14.9-2.39-27.56-9.09-38.01-19.9c-2.78-2.88-5.22-6.09-7.45-8.71c-12.85,5.98-25.3,12.22-38.1,17.64
		c-25.83,10.93-52.36,14.6-79.86,6.57c-99.86-29.18-169.48-120.19-173.7-221.61c-2.17-52.03-0.6-104.21-0.72-156.32
		c-0.02-9.15-0.1-18.3,0.06-27.45c0.11-6.06,3.55-9.38,9.51-9.85c21.61-1.7,43.23-3.42,64.84-5.17c5.03-0.41,9.17,2.19,10.39,6.65
		c1.47,5.37-1.74,10.7-7.75,11.55c-12.58,1.76-25.21,3.17-37.84,4.47c-6.74,0.69-13.52,0.85-20.6,1.27c0,1.9,0,3.44,0,4.97
		c0,51.18-0.15,102.37,0.11,153.55c0.06,12.06,0.4,24.3,2.45,36.14c15.07,86.95,63.37,147.29,145.72,179.76
		c15.27,6.02,31.14,9.38,47.77,7.17c21.4-2.84,40.75-11.38,59.54-21.45c9.35-5.01,9.11-5.11,7.58-15.43
		c-0.75-5.08-0.72-10.27-0.98-14.29c-14.66,7.15-29.17,14.79-44.14,21.36c-17.39,7.64-35.43,9.5-53.94,3.49
		c-28-9.08-53-23.32-74.55-43.33c-37.88-35.18-59.95-78.53-64.98-130.03c-1.61-16.46-1.18-33.14-1.27-49.72
		c-0.17-33.19-0.07-66.38-0.03-99.58c0.01-7.3,2.89-10.67,9.38-11.46c10.15-1.24,20.34-2.23,30.44-3.84
		c41.08-6.57,80.99-16.8,117.03-38.64c4.17-2.53,7.97-2.46,12.2-0.05c7.13,4.07,14.29,8.12,21.72,11.58
		c39.28,18.27,81.2,26.12,123.87,30.81c8.61,0.95,11.36,3.72,11.36,12.5c0.01,42.03,0.02,84.07,0,126.1
		c-0.02,37.21-9.03,72.05-27.7,104.31c-0.61,1.05-1.09,2.18-1.41,2.82c8.44,0.4,16.88,0.79,25.74,1.21c0.89-1.73,2.07-3.9,3.15-6.12
		c15.5-31.87,23.39-65.55,23.46-100.98c0.11-52.11,0.03-104.23,0.02-156.34c0-1.49-0.14-2.98-0.17-3.61
		c-20.23-2.29-40.04-3.74-59.57-6.91c-44.16-7.18-85.88-21.37-123.61-46.02c-2.4-1.57-3.88-1.02-6.17,0.22
		c-14.42,7.81-28.88,15.54-43.52,22.91c-5.42,2.73-10.66,0.44-12.81-4.58c-2.05-4.81-0.11-9.92,5.25-12.22
		C211.19,38.96,228.51,29.42,244.64,17.76z M151.11,378.73c0.31-1.09,0.45-1.37,0.47-1.66c1.33-34.87,2.62-69.74,4.01-104.6
		c0.18-4.51-1.8-7.48-5.17-10.24c-12.74-10.42-19.41-23.83-19.38-40.45c0.04-21.09,0.01-42.19,0.01-63.28
		c0-1.09-0.04-2.18,0.06-3.25c0.42-4.52,3.59-7.84,7.95-8.38c4.71-0.59,8.67,1.84,10,6.41c0.51,1.74,0.57,3.66,0.58,5.5
		c0.05,14.89-0.05,29.78,0.06,44.67c0.06,8.04,4.58,12.73,11.76,12.63c6.36-0.08,10.64-5.09,10.68-12.66
		c0.05-10.24,0.01-20.47,0.02-30.71c0-5.58-0.16-11.17,0.08-16.75c0.24-5.67,4.33-9.38,9.63-9.2c5.09,0.17,8.65,3.93,8.89,9.44
		c0.07,1.55,0.02,3.1,0.02,4.65c0,14.42-0.12,28.85,0.05,43.27c0.12,9.72,9.01,14.91,17.19,10.25c4.73-2.69,5.34-7.32,5.35-12.09
		c0.05-15.04-0.05-30.09,0.07-45.13c0.05-6.49,3.83-10.46,9.4-10.4c5.42,0.06,9.1,3.91,9.12,10.15c0.07,22.49,0.2,44.98-0.09,67.47
		c-0.19,14.76-6.31,27.18-17.62,36.51c-5.27,4.35-7.11,8.98-6.83,15.62c2.02,47.88,3.75,95.77,5.73,143.65
		c0.06,1.51,1.52,3.7,2.88,4.29c5.39,2.33,10.94,4.31,16.54,6.11c16.57,5.32,31.8,0.1,46.74-6.43c1-0.44,1.58-2.77,1.66-4.26
		c2.45-48.94,4.78-97.89,7.25-146.83c0.19-3.81-0.79-6.34-3.99-8.6c-10.43-7.39-17.14-17.52-19.57-30.03
		c-1.2-6.17-1.12-12.63-1.28-18.97c-0.66-26.47,11.01-46.83,31.57-62.58c10.75-8.23,27.19-8.36,37.75,0.1
		c5.89,4.71,11.42,10.08,16.26,15.87c13.79,16.52,16.44,36.23,15.22,56.91c-0.98,16.55-8.09,29.69-21.55,39.3
		c-2.58,1.84-3.57,3.83-3.4,6.98c1.5,27.56,2.87,55.13,4.31,82.7c0.37,7.03,0.85,14.06,1.33,22.07c1.78-1.95,2.86-3.02,3.81-4.2
		c28.44-34.8,42.72-74.73,42.93-119.62c0.18-38.93,0.04-77.86,0.03-116.79c0-1.51-0.12-3.02-0.19-4.54
		c-7.73-1.09-15.1-2.02-22.43-3.17c-41.7-6.54-82.24-16.76-119.38-37.76c-1.27-0.72-3.67-0.69-4.95,0.04
		c-32.24,18.25-67.19,28.44-103.36,35.01c-12.61,2.29-25.32,4.08-38.23,6.13c-0.08,1.35-0.24,2.71-0.24,4.08
		c-0.01,38.93,0.02,77.86-0.01,116.79c-0.03,29.32,6.28,57.18,19.27,83.47C129.68,351.54,139.12,365.64,151.11,378.73z
		 M300.11,412.83c0.37,0.3,0.73,0.6,1.1,0.91c7.69-5.61,15.49-11.08,22.98-16.94c1.47-1.15,2.6-3.83,2.51-5.74
		c-1.85-38.87-3.74-77.74-6.03-116.58c-0.64-10.8,2.66-18.95,11.7-25.03c6.84-4.61,11.4-11.27,12.53-19.41
		c3.27-23.62-1.01-44.76-21.01-60.48c-6.92-5.44-13.3-5.52-20.06-0.04c-16.21,13.12-22.83,30.02-22.05,50.72
		c0.49,12.87,4.46,23.16,15.22,30.63c7.04,4.89,10.24,11.93,9.84,20.43c-1.63,34.69-3.37,69.37-5.04,104.06
		C301.18,387.84,300.67,400.33,300.11,412.83z M439.42,426.93c0.07-26.43-21.93-48.73-48.29-48.94
		c-26.7-0.21-49.27,22.29-49.18,49.03c0.1,26.41,22.23,48.53,48.63,48.59C417.48,475.67,439.35,453.87,439.42,426.93z M152.2,233.5
		c-0.33,0.5-0.65,1.01-0.98,1.51c3.53,4.19,6.54,9.02,10.7,12.43c8.73,7.16,12.73,15.82,12.25,27.13
		c-1.68,39.33-3.07,78.67-4.52,118.01c-0.05,1.46-0.12,3.65,0.73,4.3c7.52,5.78,15.25,11.29,23.69,17.45c0-2.64,0.04-3.72-0.01-4.8
		c-1.71-43.98-3.24-87.97-5.27-131.94c-0.59-12.78,2.79-23.06,13.37-30.77c4.32-3.15,7.23-7.62,9.25-13.55
		c-11.68,3.25-21.34,0.75-29.95-6.51C172.82,234.17,163.11,236.43,152.2,233.5z"/>
	<path class="st0" d="M383.08,428.98c-1.61-1.84-2.7-3.16-3.87-4.4c-1.28-1.35-2.58-2.68-3.96-3.93c-4.18-3.83-9.7-3.99-13.36-0.44
		c-3.87,3.76-3.82,9.31,0.35,13.64c4.51,4.69,9.12,9.29,13.8,13.81c4.73,4.57,9.68,4.68,14.31,0.13
		c9.07-8.9,18.05-17.89,26.93-26.99c1.44-1.47,2.67-3.54,3.1-5.53c0.9-4.22-0.79-7.7-4.65-9.72c-4.01-2.1-7.88-1.42-11.09,1.75
		C397.63,414.28,390.69,421.34,383.08,428.98z"/>
	<path class="st0" d="M158.6,59.52c5.15,0.1,8.97,4.04,8.94,9.24c-0.03,5.14-3.97,9.05-9.16,9.06c-5.29,0.01-9.52-4.32-9.27-9.5
		C149.36,63.25,153.48,59.42,158.6,59.52z"/>
	<path class="st0" d="M383.08,428.98c7.61-7.65,14.54-14.7,21.58-21.66c3.21-3.17,7.08-3.85,11.09-1.75
		c3.86,2.02,5.55,5.5,4.65,9.72c-0.42,1.99-1.66,4.05-3.1,5.53c-8.88,9.09-17.86,18.09-26.93,26.99c-4.64,4.55-9.58,4.44-14.31-0.13
		c-4.68-4.52-9.29-9.12-13.8-13.81c-4.17-4.34-4.22-9.88-0.35-13.64c3.65-3.55,9.17-3.39,13.36,0.44c1.37,1.25,2.68,2.58,3.96,3.93
		C380.38,425.83,381.47,427.14,383.08,428.98z"/>
</g>
</svg>
