<?xml version="1.0" encoding="utf-8"?>
<!-- Generator: Adobe Illustrator 23.0.1, SVG Export Plug-In . SVG Version: 6.00 Build 0)  -->
<svg version="1.1" id="Layer_1" xmlns="http://www.w3.org/2000/svg" xmlns:xlink="http://www.w3.org/1999/xlink" x="0px" y="0px"
	 viewBox="0 0 500 512" style="enable-background:new 0 0 500 512;" xml:space="preserve">
<style type="text/css">
	.st0{fill:#B5985A;}
</style>
<g>
	<path class="st0" d="M192.55,185.94c0-9.89-0.03-18.8,0.01-27.72c0.04-7.67,2.2-9.82,9.76-9.86c4.8-0.02,9.6,0,14.8,0
		c0-6.5,0-12.73,0-19.56c-4.71,0-9.3,0.01-13.89,0c-8.64-0.02-9.99-1.69-10.87-10.52c-0.95-9.54-1.83-19.19-4.11-28.45
		c-2.93-11.88-8.81-22.24-19.55-29.32c-1.89-1.25-3.32-4.54-3.4-6.95c-0.37-10.3-0.24-20.62-0.13-30.93
		c0.06-5.56,2.76-8.29,8.28-8.3c52.08-0.05,104.16-0.05,156.24-0.01c5.83,0,8.46,2.69,8.51,8.59c0.1,10.14,0.23,20.29-0.12,30.42
		c-0.08,2.43-1.35,5.8-3.21,7.04c-14.41,9.65-19.47,24.34-22.26,40.24c-1.03,5.9-1.25,11.95-1.65,17.94
		c-0.57,8.66-2.19,10.24-11.08,10.25c-4.44,0.01-8.88,0-13.67,0c0,6.5,0,12.6,0,19.56c4.29,0,8.67,0,13.05,0
		c9.97,0,11.52,1.58,11.52,11.73c0.01,8.38,0,16.77,0,25.85c2.41,0,4.24,0,6.07,0c17.02,0,34.03-0.04,51.05,0.01
		c20.19,0.06,31.24,11.15,31.24,31.3c0.01,83.53,0.01,167.07,0,250.6c0,20.03-11.2,31.14-31.36,31.14c-77.52,0-155.04,0.01-232.55,0
		c-19.76,0-31.03-11.24-31.03-30.94c-0.01-83.71-0.01-167.41,0-251.12c0-19.73,11.17-30.92,31.03-30.99
		c17.02-0.06,34.03-0.01,51.05-0.01C188.13,185.94,189.99,185.94,192.55,185.94z M118.64,342.12c0,41.76,0,83.53,0,125.29
		c0,12.41,4.71,17.15,17.03,17.15c77.34,0,154.68,0,232.02,0c12.34,0,17.02-4.72,17.02-17.17c0-83.35,0-166.71,0-250.06
		c0-12.12-4.71-16.94-16.78-16.94c-77.51-0.03-155.02-0.03-232.53,0c-12.08,0-16.76,4.8-16.76,16.96
		C118.63,258.94,118.64,300.53,118.64,342.12z M207.58,114.01c29.47,0,59.09,0,88.84,0c0.58-5.08,0.91-9.87,1.7-14.58
		c3.02-18.17,9.15-34.83,23.68-47.27c0.84-0.72,1.84-1.87,1.86-2.83c0.16-6.79,0.09-13.58,0.09-20.27c-48.43,0-96.09,0-144.17,0
		c0,6.64-0.11,12.96,0.09,19.27c0.04,1.31,0.93,2.94,1.95,3.81c10.56,9.03,17.05,20.62,20.49,33.81
		C204.47,95.02,205.74,104.38,207.58,114.01z M296.07,163.09c-29.67,0-59.12,0-88.61,0c0,7.71,0,15.14,0,22.51
		c29.75,0,59.04,0,88.61,0C296.07,177.96,296.07,170.66,296.07,163.09z M271.12,148.14c0-6.66,0-12.76,0-18.92
		c-13.19,0-26.07,0-38.9,0c0,6.51,0,12.6,0,18.92C245.28,148.14,258.04,148.14,271.12,148.14z"/>
	<path class="st0" d="M251.93,220.48c34.03,0,68.06-0.01,102.1,0c8.67,0,10.69,2.03,10.64,10.59c-0.29,44.53-1.94,88.99-7.86,133.19
		c-3.6,26.92-8.39,53.6-17.41,79.33c-5.01,14.3-14.4,21.01-29.48,21.03c-38.84,0.05-77.69,0.05-116.54,0
		c-15.05-0.02-24.42-6.73-29.45-21.06c-9.84-28.03-14.71-57.14-18.35-86.48c-5.15-41.5-6.64-83.22-6.94-125
		c-0.07-9.87,1.64-11.59,11.71-11.59C184.21,220.48,218.07,220.48,251.93,220.48z M345.22,339.43c-1.7,0-3.03-0.07-4.35,0.01
		c-8.9,0.53-17.81,1.61-26.71,1.55c-24.79-0.17-48.52-6.14-72.14-13.24c-25.12-7.55-50.43-7.93-75.34,1.54
		c-9.26,3.52-9.21,3.63-8.07,13.58c0.12,1.02,0.14,2.06,0.25,3.08c3.24,28.86,7.58,57.51,16.22,85.34
		c5.61,18.08,6.72,18.9,25.67,18.9c36.26,0,72.51,0.02,108.77-0.01c8.86-0.01,13.21-2.76,15.87-10.32
		C336.78,407.42,341.5,373.68,345.22,339.43z M155.63,316.71c1.3,0.55,1.49,0.71,1.6,0.67c2.73-0.98,5.44-2.05,8.19-2.98
		c28.24-9.5,56.53-8.33,84.54,0.52c30.01,9.48,60.34,14.56,91.83,9.9c3.4-0.5,5.06-1.47,5.19-5.28c0.94-27.63,2.1-55.26,3.15-82.89
		c0.02-0.45-0.34-0.92-0.51-1.35c-65.45,0-130.8,0-196.87,0C153.73,262.78,154.68,289.86,155.63,316.71z"/>
</g>
</svg>
