<?xml version="1.0" encoding="utf-8"?>
<!-- Generator: Adobe Illustrator 23.0.1, SVG Export Plug-In . SVG Version: 6.00 Build 0)  -->
<svg version="1.1" id="Layer_1" xmlns="http://www.w3.org/2000/svg" xmlns:xlink="http://www.w3.org/1999/xlink" x="0px" y="0px"
	 viewBox="0 0 500 512" style="enable-background:new 0 0 500 512;" xml:space="preserve">
<style type="text/css">
	.st0{fill:#B5985A;}
</style>
<g>
	<path class="st0" d="M146.92,505.37c-12.42-4.1-17.75-13.16-20.09-25.69c-11.36-60.84-23.45-121.54-34.86-182.38
		c-6.53-34.84,10.95-66.25,44.03-80.67c10.34-4.51,20.76-8.82,31.08-13.38c22.1-9.78,34.47-26.56,35.25-50.94
		c0.49-15.45,0.09-30.92,0.09-47.03c-3.05,0-5.75,0.11-8.43-0.02c-8.52-0.43-14.98-6.65-15.19-15.16
		c-0.27-10.97-0.25-21.95-0.04-32.92c0.17-9.04,6.61-15.34,15.66-15.78c2.53-0.12,5.07-0.02,8.1-0.02c0-4.87-0.04-9.19,0.01-13.51
		c0.14-12.28,6.33-18.48,18.52-18.5c19.69-0.03,39.38-0.03,59.07,0c12.19,0.02,18.37,6.21,18.52,18.5c0.05,4.32,0.01,8.64,0.01,13.5
		c3.03,0,5.57-0.1,8.1,0.02c9.04,0.44,15.47,6.75,15.66,15.78c0.22,10.49,0.18,20.98,0.05,31.47c-0.13,10.23-6.52,16.47-16.73,16.66
		c-2.08,0.04-4.15,0.01-6.47,0.01c-0.23,0.98-0.55,1.72-0.55,2.45c-0.01,14.85-0.36,29.71,0.13,44.54
		c0.8,24.39,13.15,41.16,35.26,50.94c10.31,4.57,20.74,8.88,31.08,13.38c30.2,13.17,47.47,39.99,44.98,72.04
		c-1.06,13.58-4.52,27-7.09,40.45c-9.75,50.98-19.74,101.91-29.26,152.93c-2.21,11.86-8.32,19.49-19.55,23.33
		C285.13,505.37,216.03,505.37,146.92,505.37z M172.37,218.39c-11.01,4.76-22.26,9.16-33.1,14.41
		c-24.85,12.02-36.48,35.6-31.29,62.78c11.7,61.28,23.47,122.55,35.22,183.83c1.57,8.18,3.62,9.9,12.08,9.9
		c63.45,0.01,126.89,0.01,190.34,0c8.77,0,10.77-1.7,12.39-10.12c11.56-60.16,23-120.34,34.76-180.46
		c4.56-23.33-0.37-43.46-19.18-58.69c-13.19-10.68-30-14.4-45.11-21.87c-0.76,1.56-1.26,2.55-1.72,3.56
		c-7,15.39-17.9,27.07-33.1,34.58c-16.41,8.1-33.98,9.9-51.89,8.67c-24.59-1.68-45.86-10.34-60.52-31.3
		C177.95,228.98,175.44,223.73,172.37,218.39z M250.68,169.29c-10.16,0-20.32,0.15-30.48-0.09c-3.22-0.07-4.44,1.13-5.33,4
		c-4.43,14.29-12.73,25.97-24.69,34.92c-2.59,1.94-2.92,3.64-1.69,6.46c4.79,11.01,12.13,19.78,22.68,25.53
		c18.91,10.32,39.13,11.2,59.7,7.1c19.15-3.81,33.62-14.12,41.73-32.44c1.33-2.99,0.94-4.74-1.83-6.83
		c-11.93-8.97-20.21-20.68-24.55-35.01c-0.84-2.78-2.11-3.77-5.05-3.72C271.01,169.4,260.85,169.29,250.68,169.29z M306.36,57.7
		c-37.29,0-74.29,0-111.47,0c0,10.63,0,20.97,0,31.36c37.39,0,74.39,0,111.47,0C306.36,78.45,306.36,68.2,306.36,57.7z
		 M282.27,121.16c0-5.34,0-10.39,0-15.52c-21.32,0-42.34,0-63.28,0c0,5.38,0,10.43,0,15.52
		C240.28,121.16,261.18,121.16,282.27,121.16z M218.83,153.09c21.39,0,42.42,0,63.34,0c0-5.43,0-10.5,0-15.53
		c-21.29,0-42.2,0-63.34,0C218.83,142.76,218.83,147.71,218.83,153.09z M282.3,25.76c-21.29,0-42.31,0-63.45,0
		c0,5.29,0,10.22,0,15.26c21.3,0,42.34,0,63.45,0C282.3,35.78,282.3,30.84,282.3,25.76z"/>
	<path class="st0" d="M250.58,441.4c-20.34,0-40.67,0.02-61.01-0.01c-17.23-0.02-27.04-9.79-27.06-27
		c-0.03-30.02-0.03-60.04,0-90.06c0.02-17.19,9.84-27.04,27.06-27.05c40.67-0.04,81.34-0.04,122.01,0
		c17.22,0.02,27.04,9.86,27.06,27.05c0.03,30.02,0.03,60.04,0,90.06c-0.02,17.21-9.83,26.98-27.06,27
		C291.25,441.41,270.91,441.4,250.58,441.4z M251.06,313.44c-20.67,0-41.33-0.02-62,0.01c-7.84,0.01-10.37,2.56-10.38,10.5
		c-0.03,30.19-0.03,60.38,0,90.58c0.01,8.29,2.39,10.74,10.61,10.75c40.85,0.03,81.7,0.03,122.54,0
		c8.23-0.01,10.63-2.46,10.64-10.73c0.03-30.03,0.02-60.06,0-90.09c-0.01-8.57-2.41-10.99-10.87-11
		C291.43,313.43,271.25,313.44,251.06,313.44z"/>
	<path class="st0" d="M370.11,330.84c-5.54-1.08-10.38-2.02-15.58-3.03c2.31-12.21,4.49-24.05,6.81-35.87
		c2.9-14.8-0.17-22.36-12.91-30.63c1.96-4.58,3.96-9.25,5.95-13.88c13.01,4.16,24.29,18.87,23.79,33.49
		c-0.4,11.49-3.16,22.9-5,34.32C372.34,320.29,371.2,325.3,370.11,330.84z"/>
	<path class="st0" d="M250.75,233.23c-13.25,0.07-24.15-10.65-24.2-23.82c-0.05-13.13,10.84-23.93,24.11-23.89
		c13.07,0.03,23.69,10.48,23.95,23.55C274.85,222.1,263.93,233.16,250.75,233.23z M250.72,201.42c-4.25-0.09-7.96,3.59-7.97,7.92
		c-0.01,4.15,3.32,7.71,7.45,7.94c4.26,0.24,8.07-3.32,8.2-7.66C258.53,205.26,255.01,201.51,250.72,201.42z"/>
</g>
</svg>
