<?xml version="1.0" encoding="utf-8"?>
<!-- Generator: Adobe Illustrator 23.0.1, SVG Export Plug-In . SVG Version: 6.00 Build 0)  -->
<svg version="1.1" id="Layer_1" xmlns="http://www.w3.org/2000/svg" xmlns:xlink="http://www.w3.org/1999/xlink" x="0px" y="0px"
	 viewBox="0 0 500 512" style="enable-background:new 0 0 500 512;" xml:space="preserve">
<style type="text/css">
	.st0{fill:#B5985A;}
</style>
<g>
	<path class="st0" d="M183.06,7.65c5.42,3.02,6.99,7.71,6.88,13.74c-0.27,15.03-0.09,30.07-0.09,45.1c0,1.58,0,3.16,0,5.19
		c11.41,0,22.35-0.01,33.3,0c10.12,0.01,13.25,3.18,13.26,13.42c0,2.9,0,5.8,0,9.09c9.03,0,17.81,0,27.17,0
		c0-3.9-0.09-7.72,0.02-11.55c0.19-7.03,3.87-10.9,10.85-10.92c30.23-0.09,60.46-0.09,90.69,0c7.37,0.02,10.93,3.99,10.96,11.79
		c0.05,17.13,0.02,34.26,0.02,52.19c2.31,0,4.49-0.01,6.66,0c9.43,0.04,12.71,3.38,12.74,12.97c0,0.48,0,0.97,0,1.45
		c0,113.32,0,226.63,0,339.95c0,11.49-2.79,14.26-14.36,14.26c-87.45,0-174.91,0-262.36,0c-11.54,0-14.31-2.77-14.31-14.31
		c0-112.83,0-225.66,0-338.5c0-13.61,2.02-15.65,15.7-15.83c1.08-0.01,2.17,0,3.7,0c0-2.21,0-3.95,0-5.69
		c0-36.21,0.09-72.42-0.09-108.63c-0.03-6.03,1.46-10.72,6.88-13.74C148.14,7.65,165.6,7.65,183.06,7.65z M376.11,484.86
		c0-1.56,0-3.09,0-4.62c0-47.19-0.03-94.39,0.08-141.58c0.01-3.2-1.02-4.83-3.76-6.41c-39.63-22.74-79.2-45.57-118.69-68.55
		c-3.04-1.77-5.1-1.34-7.83,0.24c-39.25,22.75-78.53,45.44-117.88,68.03c-3.02,1.73-4.24,3.54-4.23,7.13
		c0.13,46.87,0.09,93.74,0.09,140.61c0,1.69,0,3.38,0,5.15C208.21,484.86,291.75,484.86,376.11,484.86z M124.11,311.76
		c2.15-1.16,3.57-1.89,4.95-2.68c37.19-21.47,74.45-42.8,111.48-64.55c6.68-3.93,11.95-4.1,18.71-0.13
		c37.03,21.74,74.29,43.08,111.48,64.54c1.59,0.92,3.22,1.75,5.12,2.77c0-52.59,0-104.4,0-156.6c-5.72,0-11.19,0.18-16.64-0.07
		c-2.91-0.14-3.79,1.13-4.56,3.63c-6.6,21.41-23.95,34.95-46.34,35.14c-38.94,0.33-77.89,0.22-116.83,0.02
		c-14.07-0.07-26.5-5.24-35.45-16.15c-5.3-6.46-8.78-14.41-13.42-22.27c-5.24,0-11.79,0-18.5,0
		C124.11,207.46,124.11,259.24,124.11,311.76z M164.81,155.3c0.22,0.79,0.32,1.41,0.56,1.96c0.46,1.03,0.92,2.07,1.52,3.02
		c5.87,9.37,14.42,14.13,25.42,14.2c17.61,0.11,35.21,0.03,52.82,0.03c20.84,0,41.67,0.08,62.51-0.04
		c13.18-0.07,24.24-7.92,27.33-19.18C278.31,155.3,221.7,155.3,164.81,155.3z M143.62,27.28c0,36.31,0,72.23,0,108.04
		c9.12,0,17.9,0,26.58,0c0-36.2,0-72.01,0-108.04C161.29,27.28,152.63,27.28,143.62,27.28z M216.68,135.48c0-14.95,0-29.54,0-44.02
		c-9.11,0-17.89,0-26.58,0c0,14.85,0,29.33,0,44.02C199,135.48,207.66,135.48,216.68,135.48z M309.94,91.43c-9.17,0-17.94,0-26.57,0
		c0,14.94,0,29.53,0,44.01c9.05,0,17.7,0,26.57,0C309.94,120.71,309.94,106.24,309.94,91.43z M329.88,91.31c0,14.94,0,29.53,0,44.02
		c9.11,0,17.88,0,26.59,0c0-14.85,0-29.32,0-44.02C347.57,91.31,338.91,91.31,329.88,91.31z M236.62,135.3c8.82,0,17.71,0,26.72,0
		c0-7.04,0-13.91,0-21.31c-4.55,0-8.86,0-13.17,0c-4.46,0-8.91,0-13.54,0C236.62,121.4,236.62,128.15,236.62,135.3z"/>
	<path class="st0" d="M264.16,446.04c6.29,0,12.57-0.1,18.85,0.02c6.29,0.13,10.56,4.12,10.56,9.59c0,5.21-4.08,9.55-10.06,9.66
		c-13.05,0.25-26.11,0.27-39.16-0.02c-5.93-0.13-9.98-4.67-9.84-9.86c0.14-5.33,4.26-9.21,10.29-9.36
		C251.27,445.93,257.71,446.05,264.16,446.04z"/>
	<path class="st0" d="M225.81,455.72c-0.02,5.17-4.4,9.57-9.58,9.62c-5.1,0.05-9.68-4.37-9.81-9.47c-0.13-5.3,4.49-9.85,9.9-9.76
		C221.64,446.19,225.83,450.44,225.81,455.72z"/>
</g>
</svg>
