<?xml version="1.0" encoding="utf-8"?>
<!-- Generator: Adobe Illustrator 23.0.1, SVG Export Plug-In . SVG Version: 6.00 Build 0)  -->
<svg version="1.1" id="Layer_1" xmlns="http://www.w3.org/2000/svg" xmlns:xlink="http://www.w3.org/1999/xlink" x="0px" y="0px"
	 viewBox="0 0 500 512" style="enable-background:new 0 0 500 512;" xml:space="preserve">
<style type="text/css">
	.st0{fill:#B5985A;}
</style>
<g>
	<path class="st0" d="M291.24,124.74c11.2,41.3,5.53,79.17-21.13,113.45c16.13,8.72,30.23,19.71,42.3,35.44
		c0-9.13,0.79-16.8-0.15-24.24c-2.42-19.09,3.55-34.69,15.52-49.64c14.09-17.62,26.18-36.83,39.17-55.33
		c5.32-7.58,10.63-7.56,15.99,0.09c17.18,24.5,34.4,48.97,51.37,73.61c1.8,2.61,2.93,6.24,2.95,9.41
		c0.22,30.91,0.13,61.83,0.13,92.74c0,1.77,0,3.55,0,6.03c1.95,0,3.66,0,5.38,0c13.18,0,26.36-0.03,39.54,0.01
		c7,0.02,9.75,2.75,9.75,9.76c0.03,34.98,0.02,69.96,0.01,104.95c0,7.65-2.6,10.25-10.25,10.26c-56.95,0.01-113.89,0.05-170.84-0.08
		c-3.75-0.01-5.56,1.1-7.39,4.45c-11.9,21.75-29.67,34.75-55.19,34.57c-16.65-0.12-30.35-7.5-41.68-19.48
		c-1.11-1.18-2.17-2.4-3.49-3.87c-20.8,10.44-41.75,10.59-62.73,0c-1.2,1.31-2.29,2.48-3.37,3.66
		c-24.43,26.71-64.1,26.58-87.56-0.99c-19.76-23.23-23.1-49.72-12.83-78.17c0.55-1.53,1.19-3.02,1.78-4.53
		c0.05-0.13,0.01-0.3,0.01,0.27c-5.63-3.92-11.47-7.03-16.12-11.4C11.6,365.55,6.89,352.91,8.12,337.9
		c2.64-32.15,14.38-59.94,38.92-81.41c7.9-6.91,16.92-12.54,25.79-19.02c-0.01-0.01-0.31-0.69-0.75-1.27
		c-24.92-32.15-30.48-68.11-20.85-106.95c0.85-3.42,0.38-5.05-2.66-6.98C29.3,110.04,20.04,87.86,24.44,65.28
		c4.13-21.2,22.09-38.89,43.26-42.62c22.8-4.02,44.72,5.5,56.63,24.91c1.97,3.21,3.57,3.82,7.26,2.83
		c26.79-7.23,53.68-7.22,80.47,0.05c3.4,0.92,4.96,0.51,6.89-2.65c13.02-21.33,38.55-30.98,62.2-23.83
		c23.69,7.16,39.93,29.37,38.89,54.14C319.18,98.71,309.14,114.08,291.24,124.74z M173.52,263.92c3.22-0.23,8.41-0.55,13.59-1
		c52.52-4.51,89.21-40.36,93.57-92.81c3.56-42.72-17.74-83.83-61.81-101c-20.09-7.83-40.94-9.63-62.31-7.57
		c-51.1,4.93-88.83,38.93-93.56,89.71c-3.22,34.58,6.77,64.72,33.79,87.76C118.25,257.3,144,263.43,173.52,263.92z M242.09,350.17
		c-0.66-5.55-1.09-10.87-1.95-16.11c-3.49-21.07-11.11-40.32-25.28-56.66c-1.86-2.14-3.48-3.09-6.63-2.32
		c-24.11,5.88-48.32,5.9-72.43,0.13c-3.57-0.85-5.35,0.19-7.42,2.6c-10.1,11.82-17.25,25.25-21.12,40.22
		c-2.7,10.43-4.3,21.14-6.43,31.92c24.35,4.85,40.08,18.63,49.16,39.82c9.03,21.07,8.19,42.38-0.97,63.21
		c12.4,8.07,33.89,8.02,45.26,0.15C173.4,406.75,201.15,356.88,242.09,350.17z M140.62,421.15c-0.31-15.04-4.15-27.73-12.94-38.67
		c-16.57-20.63-44.17-22.85-63.16-5.14c-24.15,22.52-23.43,65.07,1.48,86.7c15.2,13.21,35.93,14.37,52.14,2.49
		C133.76,455.07,139.91,438.81,140.62,421.15z M296.83,420.86c-0.21-11.55-2.58-21.55-7.79-30.83
		c-15.21-27.07-47.27-32.8-68.74-12.29c-23.18,22.15-22.92,63.2,0.55,85.07c16.85,15.7,40.8,15.89,57.77,0.29
		C291.22,451.51,296.36,436.67,296.83,420.86z M114.85,269.57c-9.02-5.84-17.84-11.27-26.32-17.19c-2.66-1.86-4.36-2.18-7.26-0.64
		c-35.37,18.73-54.48,48.01-57.6,87.87c-1.08,13.82,6.84,26.54,19.74,31.54c2.94,1.14,4.83,0.91,7.12-1.66
		c8.43-9.49,18.96-15.78,31.43-18.36c3.21-0.67,4.13-1.88,4.37-4.96C88.54,317.81,97.01,291.77,114.85,269.57z M229,269.53
		c2.72,3.97,6.04,8.37,8.89,13.05c11.92,19.57,17.72,41.05,19.42,63.74c0.21,2.77,0.86,4.13,4.03,4.75
		c11.82,2.31,21.8,8.22,30.29,16.71c5.22,5.22,5.3,5.41,11.79,1.69c12.83-7.36,17.63-18.4,16.07-33.17
		c-4.14-39.14-23.86-67.26-58.66-85.09c-1.07-0.55-2.97-0.74-3.88-0.16C247.58,257.08,238.34,263.31,229,269.53z M476.23,342.27
		c-31.35,0-62.31,0-93.13,0c0,31.3,0,62.26,0,93.13c31.23,0,62.07,0,93.13,0C476.23,404.29,476.23,373.45,476.23,342.27z
		 M421.41,326.14c0-31.42,0-62.37,0-93.19c-31.3,0-62.26,0-93.38,0c0,18.27,0.71,36.18-0.23,54.02c-0.72,13.71,3.91,26.1,6.34,39.17
		C363.27,326.14,392.18,326.14,421.41,326.14z M58.34,109.83c11.78-23.8,29.77-41.01,53.35-52.35
		c-6.08-13.17-22.65-21.81-37.93-20.01c-16.83,1.99-30.36,14.21-33.86,30.6C36.36,84.59,43.48,101.1,58.34,109.83z M231.62,57.45
		c23.91,11.42,41.74,28.73,53.41,52.18c13-6.49,21.35-23.11,19.25-37.79c-2.58-18.09-15.18-31.07-33.12-34.14
		C255.74,35.07,238.9,43.35,231.62,57.45z M366.73,435.42c0-31.33,0-62.29,0-93.17c-10.52,0-20.68,0-30.57,0
		c-0.87,5.24-1.69,10.12-2.55,15.3c3.4,0,6.48-0.1,9.55,0.02c5.19,0.2,8.22,3.07,8.26,8.26c0.11,15.29,0.11,30.59,0,45.88
		c-0.04,5.19-3.07,8.03-8.25,8.28c-1.95,0.09-3.9,0.02-5.86,0.02c-8.24,0-16.47,0-24.6,0c-0.55,5.5-1.02,10.32-1.53,15.39
		C329.72,435.42,348.05,435.42,366.73,435.42z M335.45,216.63c26.71,0,52.43,0,78.9,0c-13.27-18.95-26.15-37.34-39.45-56.35
		C361.57,179.32,348.7,197.71,335.45,216.63z M311.15,404.13c7.87,0,16.06,0,24.39,0c0-10.36,0-20.49,0-31.33
		c-4.43,0.44-9.16-0.32-12.47,1.5c-6.28,3.45-11.75,8.38-17.67,12.77C307.12,392.15,309.08,397.97,311.15,404.13z"/>
	<path class="st0" d="M163.94,225.33c0-9.18,0.1-16.63-0.11-24.08c-0.03-1.1-1.32-2.42-2.36-3.21c-4.15-3.13-8.46-6.04-12.65-9.13
		c-7.23-5.34-9.97-13.38-7.42-21.47c2.62-8.28,9.2-12.93,18.47-12.98c8.13-0.04,16.26-0.06,24.39,0.01
		c8.32,0.07,14.96,4.75,17.59,12.23c2.71,7.7,0.57,15.93-5.88,21.12c-4.3,3.46-9.07,6.33-13.33,9.83c-1.48,1.22-2.83,3.47-2.93,5.33
		c-0.35,6.32-0.13,12.67-0.11,19.02c0,0.47,0.16,0.94,0.24,1.4c16.95,1.66,37.52-15.19,38.54-32.21c0.37-6.11,4.64-9.84,8.86-9.32
		c4.89,0.59,7.56,4.67,6.87,11.02c-1.79,16.43-10.74,28.25-24.32,36.89c-24.52,15.6-59.2,13.92-81.92-4.15
		c-11.32-9-18.32-20.56-18.54-35.47c-0.07-4.76,2.92-7.98,7.17-8.3c4.38-0.32,8.1,2.8,8.32,7.69c0.59,13.08,7.71,21.92,18.58,27.78
		C149.53,220.62,156.44,222.47,163.94,225.33z M171.99,170.08c-3.9,0-7.81-0.17-11.7,0.09c-1.35,0.09-3.41,1.03-3.73,2.03
		c-0.35,1.1,0.54,3.2,1.57,4.03c3.79,3.05,7.8,5.85,11.87,8.51c0.82,0.54,2.6,0.54,3.42,0.01c4.21-2.76,8.34-5.66,12.28-8.78
		c0.9-0.72,1.57-2.69,1.24-3.73c-0.31-0.97-2.07-1.98-3.26-2.06C179.8,169.92,175.89,170.08,171.99,170.08z"/>
	<path class="st0" d="M124.95,138.87c4.21,0.06,7.76,3.69,7.7,7.87c-0.07,4.19-3.72,7.73-7.9,7.67c-4.27-0.06-7.68-3.59-7.63-7.88
		C117.18,142.24,120.69,138.81,124.95,138.87z"/>
	<path class="st0" d="M226.39,146.53c0.06,4.18-3.49,7.82-7.69,7.88c-4.26,0.06-7.78-3.38-7.84-7.67c-0.06-4.3,3.34-7.81,7.62-7.88
		C222.68,138.81,226.32,142.34,226.39,146.53z"/>
	<path class="st0" d="M429.46,420.03c-7.32,0-14.64,0.08-21.96-0.02c-7.76-0.11-11.13-5.53-7.68-12.53
		c7.31-14.87,14.61-29.75,22.35-44.39c1.29-2.44,4.57-4.63,7.33-5.29c3.71-0.88,6.13,2.1,7.77,5.39
		c7.31,14.69,14.71,29.34,21.96,44.06c3.62,7.35,0.32,12.67-7.8,12.76C444.1,420.09,436.78,420.03,429.46,420.03z M440.3,404.27
		c-3.66-7.29-6.95-13.85-10.73-21.37c-3.8,7.62-7.12,14.29-10.65,21.37C426.28,404.27,432.88,404.27,440.3,404.27z"/>
	<path class="st0" d="M375.15,310.67c-17.29,0.08-31.41-13.88-31.49-31.12c-0.08-17.26,13.95-31.34,31.23-31.35
		c17.05-0.02,31.08,13.84,31.24,30.86C406.29,296.34,392.33,310.59,375.15,310.67z M375.06,295.02c8.51-0.09,15.45-7.12,15.42-15.64
		c-0.02-8.7-7.28-15.74-16.01-15.55c-8.41,0.18-15.36,7.46-15.18,15.9C359.48,288.25,366.54,295.11,375.06,295.02z"/>
</g>
</svg>
