<?xml version="1.0" encoding="utf-8"?>
<!-- Generator: Adobe Illustrator 23.0.1, SVG Export Plug-In . SVG Version: 6.00 Build 0)  -->
<svg version="1.1" id="Layer_1" xmlns="http://www.w3.org/2000/svg" xmlns:xlink="http://www.w3.org/1999/xlink" x="0px" y="0px"
	 viewBox="0 0 500 512" style="enable-background:new 0 0 500 512;" xml:space="preserve">
<style type="text/css">
	.st0{fill:#B5985A;}
</style>
<g>
	<path class="st0" d="M163.41,495.65c-10.2-2.29-19.32-6.35-25.88-14.99c-4.55-5.99-7.24-12.6-8.1-20.08
		c-0.22-1.94-1.15-4.1-2.45-5.55c-7.33-8.21-11.27-17.64-11.27-28.69c0-92.98-0.06-185.96,0.03-278.94
		c0.02-24.63,17.54-42.12,42.2-42.16c67.18-0.11,134.36-0.11,201.54,0c24.67,0.04,42.16,17.52,42.18,42.17
		c0.09,92.98,0.04,185.96,0.03,278.94c0,11.04-4.1,20.46-11.32,28.68c-1.12,1.27-2.13,3.05-2.31,4.68
		c-2.03,18.73-13.78,31.56-32.41,35.2c-0.57,0.11-1.1,0.48-1.64,0.73c-3.36,0-6.72,0-10.08,0c-0.23-0.19-0.44-0.51-0.69-0.56
		c-14.77-3-24.94-11.38-30.44-25.51c-0.44-1.14-2.71-2.23-4.13-2.24c-33.29-0.12-66.58-0.07-99.87-0.16
		c-2.56-0.01-3.44,1.04-4.7,3.12c-3.35,5.53-6.42,11.82-11.28,15.71c-5.49,4.4-12.81,6.52-19.33,9.64
		C170.13,495.65,166.77,495.65,163.41,495.65z M136.03,434.32c1.42-0.55,2.17-0.6,2.49-1c6.33-7.77,15.04-10.39,24.49-11.62
		c7.85-1.02,15.62-0.78,22.83,2.57c9.08,4.22,15.56,11.14,18.87,20.74c0.75,2.18,1.53,3.52,4.35,3.51
		c32.98-0.12,65.96-0.05,98.94-0.19c1.33-0.01,3.39-1.4,3.85-2.62c5.81-15.31,17.15-23.12,33.06-24.97
		c9.79-1.14,19.25-0.73,27.28,6.02c2.43,2.04,4.71,4.27,8.04,7.31c0.45-4.57,1.12-8.25,1.12-11.93c0.06-90.7,0.05-181.4,0.04-272.1
		c0-16.59-7.85-24.51-24.32-24.51c-65.51,0-131.01,0-196.52,0c-16.78,0-24.53,7.83-24.53,24.76c0,90.7,0,181.4,0,272.1
		C136.03,426.15,136.03,429.91,136.03,434.32z M187.37,457.63c0.04-10.14-8.11-18.47-18.16-18.58c-9.76-0.1-19.47,9.42-19.54,19.16
		c-0.07,9.67,8.64,17.9,18.91,17.84C179.11,475.99,187.34,467.93,187.37,457.63z M349.82,439.34c-10.11-0.08-18.44,7.99-18.62,18.04
		c-0.18,9.98,8.03,18.42,18.07,18.6c9.82,0.17,18.4-7.92,18.6-17.54C368.09,448.13,359.86,439.42,349.82,439.34z"/>
	<path class="st0" d="M258.71,46.84c-17.08-0.01-34.17-0.01-51.25-0.01c-4.51,0-8.05-1.78-9.98-5.96
		c-1.77-3.81-1.56-8.05,1.63-10.52c2.75-2.14,6.75-3.68,10.22-3.71c27.15-0.29,54.3-0.16,81.45-0.16c6.56,0,13.12-0.14,19.67,0.07
		c5.62,0.18,9.42,3.53,10.34,8.57c0.79,4.32-1.66,9.15-5.95,10.72c-2.22,0.81-4.77,0.95-7.17,0.96
		C291.35,46.88,275.03,46.85,258.71,46.84z"/>
	<path class="st0" d="M211.37,55.04c6.6,0,12.95,0,19.61,0c0,14.21,0,28.26,0,42.57c-6.52,0-12.86,0-19.61,0
		C211.37,83.58,211.37,69.53,211.37,55.04z"/>
	<path class="st0" d="M286.39,97.59c0-14.18,0-28.13,0-42.39c6.49,0,12.96,0,19.76,0c0,14.02,0,28.08,0,42.39
		C299.54,97.59,293.09,97.59,286.39,97.59z"/>
	<path class="st0" d="M185.68,286.31c0-30.52-0.01-61.04,0.03-91.56c0-2.27,0.15-4.59,0.63-6.8c0.98-4.58,4.92-7.6,9.56-7.64
		c4.65-0.04,8.66,2.93,9.7,7.45c0.47,2.06,0.66,4.22,0.66,6.34c0.03,61.35,0.03,122.69,0.02,184.04c0,8.93-3.81,13.97-10.42,13.86
		c-6.59-0.1-10.17-5.05-10.17-14.12C185.67,347.35,185.68,316.83,185.68,286.31z"/>
	<path class="st0" d="M311.15,285.97c0-30.52-0.01-61.04,0.03-91.57c0-2.27,0.17-4.59,0.69-6.79c1.05-4.48,5.16-7.39,9.82-7.29
		c4.43,0.1,8.38,3.05,9.37,7.31c0.48,2.06,0.66,4.22,0.66,6.34c0.03,61.35,0.03,122.7,0.02,184.05c0,8.97-3.73,14-10.31,13.98
		c-6.61-0.02-10.28-4.99-10.28-14.01C311.15,347.32,311.15,316.64,311.15,285.97z"/>
	<path class="st0" d="M268.88,286.14c0,30.55,0,61.09-0.01,91.64c0,1.68,0.06,3.37-0.14,5.03c-0.65,5.19-4.84,9.05-9.82,9.18
		c-5.09,0.13-9.57-3.85-10.22-9.24c-0.2-1.66-0.14-3.35-0.14-5.03c-0.01-61.09-0.01-122.18,0.01-183.27c0-1.98-0.05-4,0.3-5.93
		c0.91-4.98,5.13-8.3,10.11-8.19c4.77,0.11,8.75,3.43,9.61,8.24c0.32,1.79,0.28,3.65,0.28,5.48
		C268.88,224.74,268.88,255.44,268.88,286.14z"/>
</g>
</svg>
